<svg width="50" height="47" viewBox="0 0 50 47" fill="none" xmlns="http://www.w3.org/2000/svg">
<g clip-path="url(#clip0_20_18)">
<path d="M0.348145 5.55378C3.04244 3.78653 5.74049 2.02815 8.42852 0.253296C8.42349 12.7989 8.43731 25.3457 8.42225 37.8912C7.36636 38.6008 6.29168 39.2811 5.23704 39.993C3.87733 40.8469 2.53522 41.7312 1.20439 42.6319C0.941994 42.8167 0.659508 42.9688 0.364466 43.0928C0.35191 30.5802 0.382042 18.0664 0.348145 5.55378Z" fill="#E85984"/>
<path d="M8.42853 0.253404C20.3156 0.25467 32.204 0.25087 44.0908 0.25467C45.3313 0.27114 46.5266 1.25675 46.6282 2.53499C46.6761 4.78238 46.5968 7.03357 46.6671 9.28221C46.6937 17.8854 46.6711 26.4885 46.6784 35.0918C46.6611 36.0328 46.7224 36.9755 46.6471 37.9155C42.6661 37.9561 38.6821 37.9205 34.6997 37.932C26.4134 37.932 18.1272 37.9319 9.84095 37.9333C9.36764 37.9407 8.89306 37.9434 8.42224 37.8913C8.43732 25.3458 8.4235 12.799 8.42853 0.253404ZM24.7588 8.07872C23.9691 10.3818 23.3388 12.7394 22.6043 15.0603C21.2333 19.5893 19.8611 24.1183 18.4888 28.6472C18.362 29.0083 18.2553 29.3782 18.1938 29.7569C19.492 29.7773 20.7927 29.7874 22.0908 29.7532C22.5893 28.0112 23.0952 26.2719 23.5761 24.5249C23.6238 24.3704 23.6853 24.2221 23.7456 24.0739C26.2076 24.0803 28.6708 24.041 31.1329 24.0942C31.7242 25.9856 32.2868 27.8872 32.9145 29.7659C34.2416 29.7733 35.5697 29.7824 36.8968 29.7582C36.1097 27.0941 35.2134 24.4641 34.3947 21.81C32.9182 17.2393 31.4958 12.6508 30.0105 8.08377C28.2616 8.0407 26.5076 8.04957 24.7588 8.07872Z" fill="#E51050"/>
<path d="M27.3337 10.8949C27.5874 11.5068 27.6879 12.1681 27.8924 12.7964C28.6431 15.4936 29.4379 18.1805 30.1574 20.8878C28.3118 20.9131 26.4637 20.9144 24.6169 20.8878C25.4681 17.5433 26.4637 14.2356 27.3337 10.8949Z" fill="#E51050"/>
<path d="M0.315513 7.34769C0.328068 6.74973 0.272826 6.14925 0.348155 5.55383C0.382052 18.0665 0.35192 30.5803 0.364476 43.0932L0.359455 43.2209C0.264036 42.8396 0.319278 42.4458 0.314257 42.0592C0.315513 30.4892 0.314257 18.9178 0.315513 7.34769Z" fill="#231F20"/>
<path d="M24.7588 8.07863C26.5076 8.04951 28.2616 8.04064 30.0105 8.08371C31.4958 12.6507 32.9182 17.2392 34.3947 21.81C35.2134 24.464 36.1097 27.094 36.8968 29.7581C35.5697 29.7823 34.2416 29.7735 32.9145 29.7658C32.2868 27.8871 31.7242 25.9855 31.1329 24.0941C28.6708 24.0409 26.2076 24.0802 23.7456 24.0739C23.6853 24.2221 23.6238 24.3703 23.5761 24.5248C23.0952 26.2718 22.5893 28.0111 22.0908 29.7531C20.7927 29.7873 19.492 29.7772 18.1938 29.7571C18.2553 29.3781 18.362 29.0082 18.4888 28.6471C19.8611 24.1182 21.2333 19.5892 22.6043 15.0602C23.3388 12.7394 23.9691 10.3818 24.7588 8.07863ZM27.3337 10.8948C26.4637 14.2355 25.4681 17.5433 24.6169 20.8877C26.4637 20.9143 28.3118 20.9131 30.1574 20.8877C29.4379 18.1805 28.6432 15.4935 27.8924 12.7964C27.6879 12.168 27.5874 11.5067 27.3337 10.8948Z" fill="white"/>
<path d="M46.6671 9.28224C47.7282 9.1505 48.8039 9.21763 49.87 9.23789C49.9239 12.0693 49.8774 14.9033 49.8926 17.7359C49.8926 26.7723 49.8937 35.8101 49.8926 44.8466C49.8863 45.5192 49.9163 46.1918 49.8713 46.8646C36.0568 46.8872 22.2427 46.8633 8.42847 46.8758C7.60863 46.8734 6.70845 46.7975 6.07192 46.2159C5.59482 45.7637 5.22445 45.1402 5.23953 44.4613C5.23576 42.9716 5.23826 41.483 5.237 39.9931C6.29163 39.2812 7.36634 38.6009 8.42221 37.8914C8.89303 37.9434 9.3676 37.9407 9.84092 37.9333C18.1272 37.932 26.4134 37.932 34.6997 37.932C38.6821 37.9206 42.6658 37.9561 46.6471 37.9155C46.7224 36.9755 46.6608 36.0329 46.6784 35.0918C46.6711 26.4885 46.6934 17.8854 46.6671 9.28224Z" fill="#770829"/>
</g>
<defs>
<clipPath id="clip0_20_18">
<rect width="50" height="47" fill="white"/>
</clipPath>
</defs>
</svg>
