<svg width="50" height="50" viewBox="0 0 50 50" fill="none" xmlns="http://www.w3.org/2000/svg">
<path d="M41.25 25C41.25 16.0234 33.9766 8.75 25 8.75C16.0234 8.75 8.75 16.0234 8.75 25C8.75 33.9766 16.0234 41.25 25 41.25C33.9766 41.25 41.25 33.9766 41.25 25ZM5 25C5 13.9531 13.9531 5 25 5C36.0469 5 45 13.9531 45 25C45 36.0469 36.0469 45 25 45C13.9531 45 5 36.0469 5 25ZM28.9609 30.3984L17.6875 34.7344C16.1719 35.3203 14.6797 33.8281 15.2656 32.3125L19.6016 21.0391C19.8594 20.375 20.375 19.8594 21.0391 19.6016L32.3125 15.2656C33.8281 14.6797 35.3203 16.1719 34.7344 17.6875L30.3984 28.9609C30.1406 29.625 29.625 30.1406 28.9609 30.3984ZM27.5 25C27.5 23.6172 26.3828 22.5 25 22.5C23.6172 22.5 22.5 23.6172 22.5 25C22.5 26.3828 23.6172 27.5 25 27.5C26.3828 27.5 27.5 26.3828 27.5 25Z" fill="#813429"/>
</svg>
