<svg width="50" height="50" viewBox="0 0 50 50" fill="none" xmlns="http://www.w3.org/2000/svg">
<path d="M9.79688 10C7.14844 10 5 12.1484 5 14.7969C5 14.8672 5 14.9297 5.00781 15H5V35C5 37.7578 7.24219 40 10 40H40C42.7578 40 45 37.7578 45 35V15H44.9922C44.9922 14.9297 45 14.8672 45 14.7969C45 12.1484 42.8516 10 40.2031 10H9.79688ZM41.25 20.0234V35C41.25 35.6875 40.6875 36.25 40 36.25H10C9.3125 36.25 8.75 35.6875 8.75 35V20.0234L20.8438 29.1953C23.2969 31.0625 26.6953 31.0625 29.1563 29.1953L41.25 20.0234ZM8.75 14.7969C8.75 14.2188 9.21875 13.75 9.79688 13.75H40.2031C40.7813 13.75 41.25 14.2188 41.25 14.7969C41.25 15.125 41.0938 15.4375 40.8359 15.6328L26.8906 26.2109C25.7734 27.0547 24.2266 27.0547 23.1094 26.2109L9.16406 15.6328C8.90625 15.4375 8.75 15.125 8.75 14.7969Z" fill="#813429"/>
</svg>
