<svg width="50" height="50" viewBox="0 0 50 50" fill="none" xmlns="http://www.w3.org/2000/svg">
<path d="M25.0234 16.0156C20.0625 16 16.0313 20.0156 16.0156 24.9766C16 29.9375 20.0156 33.9687 24.9766 33.9844C29.9375 34 33.9688 29.9844 33.9844 25.0234C34 20.0625 29.9844 16.0312 25.0234 16.0156ZM24.9766 19.1719C28.1953 19.1562 30.8125 21.7578 30.8281 24.9766C30.8438 28.1953 28.2422 30.8125 25.0234 30.8281C21.8047 30.8437 19.1875 28.2422 19.1719 25.0234C19.1563 21.8047 21.7578 19.1875 24.9766 19.1719ZM32.2734 15.6484C32.2734 14.4922 33.2109 13.5547 34.3672 13.5547C35.5234 13.5547 36.4609 14.4922 36.4609 15.6484C36.4609 16.8047 35.5234 17.7422 34.3672 17.7422C33.2109 17.7422 32.2734 16.8047 32.2734 15.6484ZM42.4063 17.7734C42.2734 14.9687 41.6328 12.4844 39.5781 10.4375C37.5313 8.39063 35.0469 7.75 32.2422 7.60937C29.3516 7.44531 20.6875 7.44531 17.7969 7.60937C15 7.74219 12.5156 8.38281 10.4609 10.4297C8.40625 12.4766 7.77344 14.9609 7.63281 17.7656C7.46875 20.6562 7.46875 29.3203 7.63281 32.2109C7.76563 35.0156 8.40625 37.5 10.4609 39.5469C12.5156 41.5937 14.9922 42.2344 17.7969 42.375C20.6875 42.5391 29.3516 42.5391 32.2422 42.375C35.0469 42.2422 37.5313 41.6016 39.5781 39.5469C41.625 37.5 42.2656 35.0156 42.4063 32.2109C42.5703 29.3203 42.5703 20.6641 42.4063 17.7734ZM38.6719 35.3125C38.0625 36.8437 36.8828 38.0234 35.3438 38.6406C33.0391 39.5547 27.5703 39.3437 25.0234 39.3437C22.4766 39.3437 17 39.5469 14.7031 38.6406C13.1719 38.0312 11.9922 36.8516 11.375 35.3125C10.4609 33.0078 10.6719 27.5391 10.6719 24.9922C10.6719 22.4453 10.4688 16.9687 11.375 14.6719C11.9844 13.1406 13.1641 11.9609 14.7031 11.3437C17.0078 10.4297 22.4766 10.6406 25.0234 10.6406C27.5703 10.6406 33.0469 10.4375 35.3438 11.3437C36.875 11.9531 38.0547 13.1328 38.6719 14.6719C39.5859 16.9766 39.375 22.4453 39.375 24.9922C39.375 27.5391 39.5859 33.0156 38.6719 35.3125Z" fill="#813429"/>
</svg>
