<svg width="50" height="50" viewBox="0 0 50 50" fill="none" xmlns="http://www.w3.org/2000/svg">
<path d="M15.3359 40H8.07813V16.6328H15.3359V40ZM11.7031 13.4453C9.38281 13.4453 7.5 11.5234 7.5 9.20312C7.5 8.08594 7.94531 7.02344 8.73438 6.23438C9.52344 5.44531 10.5937 5 11.7031 5C12.8125 5 13.8828 5.44531 14.6719 6.23438C15.4609 7.02344 15.9062 8.09375 15.9062 9.20312C15.9062 11.5234 14.0234 13.4453 11.7031 13.4453ZM42.4922 40H35.25V28.625C35.25 25.9141 35.1953 22.4375 31.4766 22.4375C27.7031 22.4375 27.125 25.3828 27.125 28.4297V40H19.875V16.6328H26.8359V19.8203H26.9375C27.9062 17.9844 30.2734 16.0469 33.8047 16.0469C41.1484 16.0469 42.5 20.8828 42.5 27.1641V40H42.4922Z" fill="#813429"/>
</svg>
