<svg width="50" height="47" viewBox="0 0 50 47" fill="none" xmlns="http://www.w3.org/2000/svg">
<g clip-path="url(#clip0_20_41)">
<path d="M30.2326 25.85L26.7442 0H26.4837C13.7991 0.0374211 3.52541 10.419 3.48837 23.2368V23.5L30.2326 25.85Z" fill="#ED6C47"/>
<path d="M27.0047 0H26.7442V23.5L38.3721 28.2L50 23.5V23.2368C49.963 10.419 39.6893 0.0374211 27.0047 0Z" fill="#FF8F6B"/>
<path d="M50 23.5V23.7585C49.9636 36.5792 39.6874 46.9632 27 47H26.4884C13.8009 46.9632 3.52478 36.5792 3.48837 23.7585V23.5H50Z" fill="#D35230"/>
<path opacity="0.1" d="M27.907 11.5503V36.6248C27.9012 37.4961 27.3787 38.2788 26.5814 38.6105C26.3275 38.719 26.0547 38.775 25.7791 38.775H8.97674C8.65116 38.399 8.33722 37.9995 8.04651 37.6C5.08406 33.6066 3.48451 28.7494 3.48837 23.7585V23.2415C3.48157 18.7399 4.78353 14.3354 7.23255 10.575C7.48837 10.1755 7.7558 9.77602 8.04651 9.40002H25.7791C26.9506 9.409 27.8981 10.3665 27.907 11.5503Z" fill="black"/>
<path opacity="0.2" d="M26.7442 12.7252V37.7997C26.7441 38.0782 26.6888 38.354 26.5814 38.6105C26.2531 39.4161 25.4785 39.9441 24.6163 39.95H10.0349C9.66696 39.5725 9.31396 39.1806 8.97671 38.775C8.65113 38.399 8.33719 37.9995 8.04648 37.6C5.08403 33.6066 3.48448 28.7493 3.48834 23.7585V23.2415C3.48154 18.7398 4.7835 14.3353 7.23252 10.575H24.6163C25.7878 10.5839 26.7353 11.5414 26.7442 12.7252Z" fill="black"/>
<path opacity="0.2" d="M26.7442 12.7253V35.4498C26.7353 36.6336 25.7878 37.5911 24.6163 37.6001H8.04651C5.08406 33.6067 3.48451 28.7494 3.48837 23.7586V23.2416C3.48157 18.7399 4.78353 14.3354 7.23255 10.5751H24.6163C25.7878 10.584 26.7353 11.5415 26.7442 12.7253Z" fill="black"/>
<path opacity="0.2" d="M25.5814 12.7253V35.4498C25.5725 36.6336 24.625 37.5911 23.4535 37.6001H8.04651C5.08406 33.6067 3.48451 28.7494 3.48837 23.7586V23.2416C3.48157 18.7399 4.78353 14.3354 7.23255 10.5751H23.4535C24.625 10.584 25.5725 11.5415 25.5814 12.7253Z" fill="black"/>
<path d="M2.13138 10.575H23.45C24.6271 10.575 25.5814 11.5392 25.5814 12.7287V34.2712C25.5814 35.4607 24.6271 36.425 23.45 36.425H2.13138C0.95427 36.425 0 35.4607 0 34.2712V12.7287C0 11.5392 0.95427 10.575 2.13138 10.575Z" fill="url(#paint0_linear_20_41)"/>
<path d="M13.0232 16.3196C14.411 16.225 15.7868 16.6323 16.9046 17.4688C17.837 18.3098 18.3351 19.5371 18.2558 20.7975C18.271 21.6737 18.04 22.5362 17.5895 23.285C17.1335 24.0209 16.4764 24.6077 15.6977 24.9746C14.8074 25.3931 13.834 25.5997 12.8523 25.5786H10.1558V30.6428H7.39417V16.3196H13.0232ZM10.1535 23.3908H12.5302C13.2837 23.4467 14.0313 23.2213 14.6314 22.7574C15.1277 22.2763 15.3879 21.5979 15.3419 20.9045C15.3419 19.326 14.4341 18.5368 12.6186 18.5368H10.1535V23.3908H10.1535Z" fill="white"/>
</g>
<defs>
<linearGradient id="paint0_linear_20_41" x1="4.44401" y1="8.89204" x2="21.4003" y2="37.9545" gradientUnits="userSpaceOnUse">
<stop stop-color="#CA4C28"/>
<stop offset="0.5" stop-color="#C5401E"/>
<stop offset="1" stop-color="#B62F14"/>
</linearGradient>
<clipPath id="clip0_20_41">
<rect width="50" height="47" fill="white"/>
</clipPath>
</defs>
</svg>
