<svg width="46" height="50" viewBox="0 0 46 50" fill="none" xmlns="http://www.w3.org/2000/svg">
<g clip-path="url(#clip0_20_25)">
<path d="M46 10.8915L29.716 1.51654C29.716 1.51654 27.14 0 23 0C18.722 0 16.238 1.5625 16.238 1.5625L1.15002 10.1562L24.104 23.3456V50L39.238 41.3603C39.238 41.3603 41.952 39.8897 43.976 36.3511C45.77 33.2261 46 30.239 46 30.239V10.8915ZM21.436 15.2114C21.436 15.2114 24.794 14.614 27.646 16.2224C30.498 17.8768 32.2 18.8419 32.2 18.8419C32.2 18.8419 32.2 21.1397 32.2 24.5404C32.2 27.2978 29.9 30.1011 29.9 30.1011V20.0827L21.436 15.2114ZM34.776 37.2243L29.854 40.0276V37.3621L33.672 35.1562C37.306 32.5368 37.904 28.6765 37.904 27.3438V15.4412L27.508 9.51287C27.508 9.51287 25.898 8.45588 23.046 8.45588C20.194 8.45588 18.63 9.42096 18.63 9.42096L14.95 11.5349L12.65 10.2022L17.71 7.30698C17.71 7.30698 19.688 6.20404 23 6.20404C26.036 6.20404 28.428 7.3989 28.428 7.3989L40.204 14.2004V27.1599C40.296 29.136 39.376 34.0074 34.776 37.2243Z" fill="#005F9E"/>
<path d="M0 18.796L16.1 28.0331V30.7905L6.946 25.5515L1.15 28.8144L16.054 37.4081V40.0736L0.092 30.8824C0.138 31.9394 1.104 35.2942 2.99 37.8217C4.876 40.4412 7.038 41.5441 7.038 41.5441L21.804 50.046V24.6783L0 12.1783V18.796Z" fill="#005F9E"/>
</g>
<defs>
<clipPath id="clip0_20_25">
<rect width="46" height="50" fill="white"/>
</clipPath>
</defs>
</svg>
