<svg width="50" height="50" viewBox="0 0 50 50" fill="none" xmlns="http://www.w3.org/2000/svg">
<path d="M37.2578 12.5859C33.9844 9.30469 29.625 7.5 24.9922 7.5C15.4297 7.5 7.64844 15.2812 7.64844 24.8437C7.64844 27.8984 8.44531 30.8828 9.96094 33.5156L7.5 42.5L16.6953 40.0859C19.2266 41.4687 22.0781 42.1953 24.9844 42.1953H24.9922C34.5469 42.1953 42.5 34.4141 42.5 24.8516C42.5 20.2187 40.5312 15.8672 37.2578 12.5859ZM24.9922 39.2734C22.3984 39.2734 19.8594 38.5781 17.6484 37.2656L17.125 36.9531L11.6719 38.3828L13.125 33.0625L12.7812 32.5156C11.3359 30.2187 10.5781 27.5703 10.5781 24.8437C10.5781 16.8984 17.0469 10.4297 25 10.4297C28.8516 10.4297 32.4687 11.9297 35.1875 14.6562C37.9062 17.3828 39.5781 21 39.5703 24.8516C39.5703 32.8047 32.9375 39.2734 24.9922 39.2734ZM32.8984 28.4766C32.4687 28.2578 30.3359 27.2109 29.9375 27.0703C29.5391 26.9219 29.25 26.8516 28.9609 27.2891C28.6719 27.7266 27.8437 28.6953 27.5859 28.9922C27.3359 29.2812 27.0781 29.3203 26.6484 29.1016C24.1016 27.8281 22.4297 26.8281 20.75 23.9453C20.3047 23.1797 21.1953 23.2344 22.0234 21.5781C22.1641 21.2891 22.0937 21.0391 21.9844 20.8203C21.875 20.6016 21.0078 18.4687 20.6484 17.6016C20.2969 16.7578 19.9375 16.875 19.6719 16.8594C19.4219 16.8437 19.1328 16.8437 18.8437 16.8437C18.5547 16.8437 18.0859 16.9531 17.6875 17.3828C17.2891 17.8203 16.1719 18.8672 16.1719 21C16.1719 23.1328 17.7266 25.1953 17.9375 25.4844C18.1562 25.7734 20.9922 30.1484 25.3437 32.0312C28.0937 33.2187 29.1719 33.3203 30.5469 33.1172C31.3828 32.9922 33.1094 32.0703 33.4687 31.0547C33.8281 30.0391 33.8281 29.1719 33.7187 28.9922C33.6172 28.7969 33.3281 28.6875 32.8984 28.4766Z" fill="#813429"/>
</svg>
