<svg width="49" height="50" viewBox="0 0 49 50" fill="none" xmlns="http://www.w3.org/2000/svg">
<g clip-path="url(#clip0_20_31)">
<path d="M7 37.625L26.6 13.8889L49 29.3195V45.1389C49 47.8195 46.802 50 44.1 50H15.4C10.766 50 7 46.2639 7 41.6667V37.625Z" fill="url(#paint0_radial_20_31)"/>
<path d="M7 20.8889C7 17.4305 9.814 14.6389 13.3 14.6389H41.846L49 11.1111V28.4722C49 31.1528 46.802 33.3333 44.1 33.3333H15.4C10.766 33.3333 7 37.0694 7 41.6666V20.8889Z" fill="url(#paint1_linear_20_31)"/>
<path d="M7 20.8889C7 17.4305 9.814 14.6389 13.3 14.6389H41.846L49 11.1111V28.4722C49 31.1528 46.802 33.3333 44.1 33.3333H15.4C10.766 33.3333 7 37.0694 7 41.6666V20.8889Z" fill="url(#paint2_radial_20_31)" fill-opacity="0.6"/>
<path d="M7 20.8889C7 17.4305 9.814 14.6389 13.3 14.6389H41.846L49 11.1111V28.4722C49 31.1528 46.802 33.3333 44.1 33.3333H15.4C10.766 33.3333 7 37.0694 7 41.6666V20.8889Z" fill="url(#paint3_radial_20_31)" fill-opacity="0.1"/>
<path d="M7 8.33333C7 3.73611 10.766 0 15.4 0H44.1C46.802 0 49 2.18056 49 4.86111V11.8056C49 14.4861 46.802 16.6667 44.1 16.6667H15.4C10.766 16.6667 7 20.4028 7 25V8.33333Z" fill="url(#paint4_linear_20_31)"/>
<path d="M7 8.33333C7 3.73611 10.766 0 15.4 0H44.1C46.802 0 49 2.18056 49 4.86111V11.8056C49 14.4861 46.802 16.6667 44.1 16.6667H15.4C10.766 16.6667 7 20.4028 7 25V8.33333Z" fill="url(#paint5_radial_20_31)" fill-opacity="0.8"/>
<path d="M17.85 23.6111H4.55C2.0371 23.6111 0 25.632 0 28.125V41.3194C0 43.8124 2.0371 45.8333 4.55 45.8333H17.85C20.3629 45.8333 22.4 43.8124 22.4 41.3194V28.125C22.4 25.632 20.3629 23.6111 17.85 23.6111Z" fill="url(#paint6_radial_20_31)"/>
<path d="M17.85 23.6111H4.55C2.0371 23.6111 0 25.632 0 28.125V41.3194C0 43.8124 2.0371 45.8333 4.55 45.8333H17.85C20.3629 45.8333 22.4 43.8124 22.4 41.3194V28.125C22.4 25.632 20.3629 23.6111 17.85 23.6111Z" fill="url(#paint7_radial_20_31)" fill-opacity="0.65"/>
<path d="M18.886 28.375L16.128 41.0694H12.838L11.214 33.4583L9.50601 41.0833H6.17401L3.52802 28.3889H6.24402L7.88202 36.7639L9.50601 28.3889H12.838L14.532 36.7639L16.128 28.3889H18.886V28.375Z" fill="white"/>
</g>
<defs>
<radialGradient id="paint0_radial_20_31" cx="0" cy="0" r="1" gradientUnits="userSpaceOnUse" gradientTransform="translate(50.5606 49.6723) scale(66.598 27.9861)">
<stop offset="0.18" stop-color="#1657F4"/>
<stop offset="0.57" stop-color="#0036C4"/>
</radialGradient>
<linearGradient id="paint1_linear_20_31" x1="7" y1="26.3889" x2="39.158" y2="26.3889" gradientUnits="userSpaceOnUse">
<stop stop-color="#66C0FF"/>
<stop offset="0.26" stop-color="#0094F0"/>
</linearGradient>
<radialGradient id="paint2_radial_20_31" cx="0" cy="0" r="1" gradientTransform="matrix(-28.3201 29.5546 73.3819 69.2049 45.5064 19.5501)" gradientUnits="userSpaceOnUse">
<stop offset="0.14" stop-color="#D471FF"/>
<stop offset="0.83" stop-color="#509DF5" stop-opacity="0"/>
</radialGradient>
<radialGradient id="paint3_radial_20_31" cx="0" cy="0" r="1" gradientUnits="userSpaceOnUse" gradientTransform="translate(44.5578 28.4705) rotate(90) scale(25.8611 142.31)">
<stop offset="0.28" stop-color="#4F006F" stop-opacity="0"/>
<stop offset="1" stop-color="#4F006F"/>
</radialGradient>
<linearGradient id="paint4_linear_20_31" x1="7" y1="12.1944" x2="48.9998" y2="12.9" gradientUnits="userSpaceOnUse">
<stop stop-color="#9DEAFF"/>
<stop offset="0.2" stop-color="#3BD5FF"/>
</linearGradient>
<radialGradient id="paint5_radial_20_31" cx="0" cy="0" r="1" gradientTransform="matrix(-40.2034 9.31807 22.499 95.5384 47.6128 -4.24006)" gradientUnits="userSpaceOnUse">
<stop offset="0.06" stop-color="#E4A7FE"/>
<stop offset="0.54" stop-color="#E4A7FE" stop-opacity="0"/>
</radialGradient>
<radialGradient id="paint6_radial_20_31" cx="0" cy="0" r="1" gradientTransform="matrix(22.4026 22.2248 22.4026 -22.2248 -0.245911 20.6541)" gradientUnits="userSpaceOnUse">
<stop offset="0.08" stop-color="#367AF2"/>
<stop offset="0.87" stop-color="#001A8F"/>
</radialGradient>
<radialGradient id="paint7_radial_20_31" cx="0" cy="0" r="1" gradientUnits="userSpaceOnUse" gradientTransform="translate(15.1687 36.8777) rotate(90) scale(15.5556 17.878)">
<stop offset="0.59" stop-color="#2763E5" stop-opacity="0"/>
<stop offset="0.97" stop-color="#58AAFE"/>
</radialGradient>
<clipPath id="clip0_20_31">
<rect width="49" height="50" fill="white"/>
</clipPath>
</defs>
</svg>
