<svg width="190" height="177" viewBox="0 0 190 177" fill="none" xmlns="http://www.w3.org/2000/svg">
<path d="M1.32288 20.9155C11.5612 14.2601 21.8138 7.63812 32.0283 0.954102C32.0092 48.2002 32.0617 95.4511 32.0045 142.697C27.9921 145.369 23.9083 147.931 19.9007 150.612C14.7338 153.828 9.63377 157.158 4.57662 160.55C3.57951 161.246 2.50606 161.819 1.3849 162.286C1.33719 115.164 1.45169 68.0376 1.32288 20.9155Z" fill="#E85984"/>
<path d="M32.0284 0.954177C77.1992 0.958947 122.375 0.944635 167.545 0.958947C172.259 1.02097 176.801 4.73272 177.187 9.54655C177.369 18.0101 177.068 26.488 177.335 34.9563C177.436 67.3554 177.35 99.7545 177.378 132.154C177.312 135.698 177.545 139.248 177.259 142.788C162.131 142.941 146.992 142.807 131.859 142.85C100.371 142.85 68.8835 142.85 37.3956 142.855C35.597 142.883 33.7936 142.893 32.0045 142.697C32.0618 95.4512 32.0093 48.2003 32.0284 0.954177ZM94.0833 30.424C91.0824 39.0974 88.6875 47.9761 85.8965 56.7163C80.6867 73.7723 75.4721 90.8282 70.2575 107.884C69.7757 109.244 69.3701 110.637 69.1364 112.063C74.0695 112.14 79.0121 112.178 83.9452 112.049C85.8392 105.489 87.7619 98.9387 89.5892 92.3596C89.7704 91.7776 90.0042 91.2194 90.2332 90.6612C99.5889 90.6851 108.949 90.5372 118.305 90.7375C120.552 97.8605 122.69 105.022 125.075 112.097C130.118 112.125 135.165 112.159 140.208 112.068C137.217 102.035 133.811 92.1306 130.7 82.1356C125.089 64.9223 119.684 47.6421 114.04 30.443C107.394 30.2808 100.729 30.3142 94.0833 30.424Z" fill="#E51050"/>
<path d="M103.868 41.0295C104.832 43.3339 105.214 45.8243 105.991 48.1906C108.844 58.3479 111.864 68.4669 114.598 78.6623C107.585 78.7577 100.562 78.7625 93.5442 78.6623C96.7789 66.0672 100.562 53.6104 103.868 41.0295Z" fill="#E51050"/>
<path d="M1.19885 27.6711C1.24656 25.4192 1.03664 23.1578 1.32289 20.9155C1.4517 68.0376 1.3372 115.164 1.38491 162.287L1.36583 162.768C1.00324 161.332 1.21316 159.849 1.19408 158.393C1.19885 114.821 1.19408 71.2436 1.19885 27.6711Z" fill="#231F20"/>
<path d="M94.0833 30.424C100.729 30.3143 107.394 30.2809 114.04 30.4431C119.684 47.6422 125.089 64.9224 130.7 82.1357C133.811 92.1307 137.217 102.035 140.208 112.068C135.165 112.159 130.118 112.126 125.075 112.097C122.69 105.022 120.552 97.8606 118.305 90.7376C108.949 90.5373 99.5889 90.6852 90.2332 90.6613C90.0042 91.2195 89.7704 91.7777 89.5892 92.3597C87.7619 98.9388 85.8392 105.489 83.9452 112.049C79.0121 112.178 74.0695 112.14 69.1364 112.064C69.3701 110.637 69.7757 109.244 70.2575 107.884C75.4721 90.8283 80.6867 73.7724 85.8965 56.7164C88.6875 47.9762 91.0825 39.0975 94.0833 30.424ZM103.868 41.0297C100.562 53.6106 96.7789 66.0674 93.5442 78.6625C100.562 78.7627 107.585 78.7579 114.598 78.6625C111.864 68.4671 108.844 58.3481 105.991 48.1908C105.214 45.8245 104.832 43.3341 103.868 41.0297Z" fill="white"/>
<path d="M177.335 34.9563C181.367 34.4602 185.455 34.713 189.506 34.7893C189.711 45.4523 189.534 56.1248 189.592 66.7925C189.592 100.823 189.596 134.859 189.592 168.89C189.568 171.423 189.682 173.956 189.511 176.49C137.016 176.575 84.5223 176.485 32.0282 176.532C28.9128 176.523 25.4921 176.237 23.0733 174.047C21.2603 172.344 19.8529 169.996 19.9102 167.439C19.8959 161.829 19.9054 156.223 19.9006 150.612C23.9082 147.931 27.9921 145.369 32.0044 142.697C33.7935 142.893 35.5969 142.883 37.3955 142.855C68.8834 142.85 100.371 142.85 131.859 142.85C146.992 142.807 162.13 142.941 177.259 142.788C177.545 139.248 177.311 135.698 177.378 132.154C177.35 99.7545 177.435 67.3554 177.335 34.9563Z" fill="#770829"/>
</svg>
